<?xml version="1.0" encoding="utf-8"?>
<!-- Generator: Adobe Illustrator 16.0.0, SVG Export Plug-In . SVG Version: 6.00 Build 0)  -->
<!DOCTYPE svg PUBLIC "-//W3C//DTD SVG 1.1//EN" "http://www.w3.org/Graphics/SVG/1.1/DTD/svg11.dtd">
<svg version="1.1" id="Layer_1" xmlns="http://www.w3.org/2000/svg" xmlns:xlink="http://www.w3.org/1999/xlink" x="0px" y="0px"
	 width="250px" height="250px" viewBox="0 0 250 250" enable-background="new 0 0 250 250" xml:space="preserve">
<rect x="-19.668" y="-6.935" display="none" fill="#EB2D7C" width="275.376" height="273.367"/>
<g>
	<g opacity="0.1">
		<path fill="#070707" d="M78.039,108.716c0,13.458,5.512,25.646,14.394,34.441c0.112,0.113,0.227,0.226,0.34,0.34
			s0.228,0.229,0.341,0.343c0.113,0.114,0.227,0.226,0.344,0.34c0.109,0.112,0.221,0.225,0.332,0.336
			c0.118,0.114,0.232,0.233,0.35,0.35c0.113,0.112,0.226,0.227,0.337,0.338c0.115,0.112,0.228,0.225,0.342,0.338
			c0.115,0.114,0.228,0.233,0.345,0.346c0.11,0.109,0.221,0.222,0.333,0.333c0.115,0.114,0.23,0.233,0.346,0.343
			c0.113,0.116,0.228,0.23,0.344,0.348c0.11,0.109,0.22,0.221,0.332,0.331c0.115,0.116,0.229,0.23,0.345,0.347
			c0.115,0.114,0.229,0.229,0.344,0.343c0.111,0.112,0.224,0.224,0.336,0.336c0.112,0.114,0.228,0.229,0.342,0.343
			c0.113,0.114,0.228,0.226,0.341,0.34c0.114,0.114,0.227,0.229,0.341,0.341c0.114,0.116,0.226,0.229,0.342,0.343
			c0.112,0.114,0.227,0.226,0.339,0.34c0.114,0.114,0.229,0.227,0.342,0.341c0.113,0.116,0.227,0.224,0.34,0.343
			c0.116,0.113,0.232,0.228,0.348,0.345c0.107,0.109,0.215,0.215,0.324,0.324c0.118,0.118,0.236,0.239,0.354,0.354
			c0.111,0.114,0.224,0.227,0.337,0.341c0.115,0.109,0.228,0.224,0.342,0.338c0.113,0.116,0.228,0.23,0.344,0.345
			c0.111,0.11,0.221,0.22,0.333,0.334c0.115,0.114,0.231,0.229,0.345,0.343c0.113,0.116,0.226,0.226,0.339,0.342
			c0.113,0.114,0.228,0.227,0.344,0.341c0.111,0.114,0.224,0.227,0.337,0.341c0.114,0.111,0.229,0.228,0.344,0.342
			c0.116,0.117,0.232,0.233,0.348,0.348c0.107,0.107,0.214,0.215,0.323,0.319c0.116,0.121,0.232,0.235,0.351,0.354
			c0.113,0.114,0.226,0.229,0.34,0.338c0.118,0.116,0.233,0.235,0.35,0.35c0.108,0.109,0.217,0.217,0.323,0.324
			c0.118,0.119,0.233,0.235,0.349,0.35c0.114,0.114,0.228,0.227,0.342,0.345c0.113,0.109,0.227,0.224,0.341,0.338
			c0.111,0.112,0.226,0.227,0.339,0.339c0.115,0.116,0.23,0.23,0.348,0.349c0.108,0.11,0.218,0.22,0.329,0.332
			c0.116,0.116,0.23,0.23,0.347,0.345c0.113,0.114,0.227,0.229,0.341,0.34c0.113,0.114,0.226,0.229,0.34,0.341
			c0.112,0.114,0.225,0.226,0.339,0.34c0.114,0.117,0.229,0.231,0.344,0.343c0.108,0.107,0.219,0.222,0.331,0.331
			c0.117,0.117,0.233,0.233,0.349,0.35c0.114,0.114,0.226,0.229,0.341,0.343c0.111,0.109,0.224,0.222,0.336,0.334
			c0.113,0.116,0.229,0.23,0.345,0.342c0.112,0.114,0.226,0.229,0.339,0.343c0.113,0.114,0.226,0.229,0.339,0.341
			c0.115,0.114,0.228,0.229,0.344,0.34c0.113,0.117,0.228,0.23,0.344,0.35c0.109,0.107,0.22,0.22,0.332,0.331
			c0.113,0.114,0.229,0.229,0.344,0.343s0.228,0.229,0.342,0.341c0.115,0.116,0.23,0.23,0.346,0.345
			c0.111,0.114,0.224,0.224,0.337,0.338c0.113,0.114,0.23,0.229,0.346,0.343c0.108,0.111,0.219,0.222,0.33,0.333
			c0.115,0.114,0.231,0.233,0.346,0.348c0.113,0.109,0.225,0.224,0.339,0.336c0.114,0.114,0.226,0.229,0.342,0.343
			c0.111,0.114,0.223,0.226,0.335,0.338c0.114,0.114,0.229,0.23,0.345,0.345c0.114,0.112,0.229,0.227,0.341,0.34
			c0.113,0.114,0.229,0.229,0.342,0.343c0.112,0.112,0.226,0.225,0.338,0.338c0.114,0.114,0.229,0.229,0.343,0.341
			c0.116,0.116,0.233,0.235,0.348,0.35c0.108,0.107,0.217,0.215,0.324,0.324c0.118,0.116,0.232,0.235,0.35,0.352
			c0.117,0.114,0.232,0.229,0.35,0.348c0.109,0.109,0.219,0.219,0.33,0.329c0.113,0.111,0.225,0.226,0.339,0.34
			c0.115,0.119,0.23,0.233,0.347,0.348c0.111,0.114,0.224,0.226,0.337,0.34c0.114,0.109,0.227,0.224,0.342,0.338
			c0.114,0.119,0.23,0.231,0.345,0.345c0.108,0.11,0.218,0.22,0.328,0.327c0.117,0.121,0.233,0.237,0.352,0.352
			c0.111,0.114,0.222,0.227,0.335,0.338c0.114,0.114,0.229,0.231,0.347,0.346c0.111,0.114,0.224,0.226,0.337,0.338
			c0.113,0.114,0.226,0.226,0.338,0.34c0.118,0.117,0.236,0.235,0.353,0.352c0.107,0.105,0.215,0.218,0.323,0.322
			c0.118,0.117,0.236,0.237,0.355,0.354c0.111,0.111,0.222,0.224,0.333,0.333c0.112,0.112,0.223,0.225,0.333,0.336
			c0.12,0.119,0.238,0.237,0.356,0.354c0.11,0.114,0.221,0.224,0.333,0.331c0.113,0.116,0.225,0.229,0.338,0.343
			c0.01,0.007,0.02,0.016,0.027,0.027V60.223C99.792,60.223,78.039,81.978,78.039,108.716z"/>
		<path fill="#070707" d="M195.087,108.732c-0.015-0.014-0.027-0.029-0.045-0.045c-0.109-0.113-0.224-0.226-0.335-0.335
			c-0.111-0.113-0.223-0.225-0.334-0.334c-0.117-0.119-0.235-0.239-0.354-0.355c-0.112-0.111-0.223-0.225-0.331-0.333
			c-0.114-0.114-0.229-0.23-0.347-0.345c-0.108-0.11-0.223-0.221-0.333-0.332c-0.114-0.119-0.232-0.237-0.35-0.352
			c-0.114-0.113-0.223-0.225-0.337-0.333c-0.111-0.118-0.227-0.232-0.343-0.345c-0.112-0.113-0.227-0.229-0.337-0.34
			c-0.114-0.113-0.227-0.226-0.337-0.337c-0.114-0.114-0.229-0.23-0.344-0.343c-0.114-0.116-0.232-0.232-0.35-0.35
			c-0.11-0.109-0.22-0.219-0.33-0.331c-0.114-0.114-0.229-0.23-0.346-0.344c-0.112-0.113-0.227-0.226-0.337-0.339
			c-0.118-0.119-0.239-0.234-0.355-0.352c-0.105-0.105-0.208-0.208-0.315-0.315c-0.117-0.122-0.238-0.243-0.362-0.363
			c-0.111-0.113-0.223-0.224-0.337-0.338c-0.111-0.11-0.223-0.219-0.333-0.331c-0.115-0.118-0.229-0.235-0.346-0.348
			c-0.112-0.114-0.227-0.224-0.337-0.337c-0.116-0.116-0.23-0.229-0.344-0.343c-0.111-0.113-0.226-0.227-0.343-0.343
			c-0.112-0.113-0.227-0.226-0.341-0.34c-0.11-0.112-0.226-0.228-0.34-0.338c-0.111-0.115-0.226-0.228-0.337-0.34
			c-0.114-0.113-0.222-0.224-0.334-0.333c-0.117-0.118-0.237-0.237-0.355-0.354c-0.111-0.113-0.226-0.225-0.34-0.338
			c-0.108-0.112-0.223-0.222-0.334-0.335c-0.114-0.113-0.226-0.229-0.34-0.341c-0.114-0.116-0.231-0.232-0.35-0.346
			c-0.11-0.115-0.22-0.224-0.333-0.334c-0.114-0.114-0.226-0.23-0.343-0.344c-0.112-0.113-0.227-0.229-0.337-0.339
			c-0.118-0.117-0.232-0.231-0.35-0.348c-0.108-0.109-0.22-0.221-0.331-0.331c-0.117-0.118-0.232-0.235-0.349-0.348
			c-0.112-0.114-0.227-0.228-0.337-0.34c-0.115-0.113-0.227-0.226-0.341-0.339c-0.114-0.114-0.228-0.227-0.34-0.343
			c-0.114-0.113-0.229-0.224-0.341-0.34c-0.114-0.113-0.228-0.228-0.342-0.34c-0.111-0.111-0.224-0.224-0.334-0.333
			c-0.117-0.12-0.235-0.236-0.355-0.353c-0.104-0.109-0.213-0.218-0.325-0.325c-0.114-0.122-0.234-0.238-0.355-0.358
			c-0.108-0.113-0.223-0.224-0.333-0.335c-0.118-0.117-0.232-0.235-0.35-0.349c-0.108-0.108-0.22-0.22-0.328-0.328
			c-0.114-0.113-0.229-0.228-0.343-0.342c-0.113-0.116-0.226-0.229-0.344-0.341c-0.114-0.118-0.228-0.233-0.346-0.346
			c-0.11-0.113-0.223-0.226-0.333-0.337c-0.114-0.115-0.229-0.227-0.343-0.34c-0.114-0.114-0.227-0.227-0.341-0.343
			c-0.114-0.112-0.226-0.225-0.34-0.339c-0.114-0.113-0.229-0.228-0.34-0.34c-0.115-0.113-0.229-0.229-0.344-0.343
			c-0.11-0.113-0.225-0.226-0.339-0.339c-0.115-0.114-0.227-0.23-0.341-0.341c-0.111-0.111-0.223-0.224-0.333-0.333
			c-0.117-0.116-0.231-0.23-0.348-0.347c-0.114-0.116-0.231-0.232-0.346-0.346c-0.114-0.112-0.225-0.226-0.339-0.338
			c-0.114-0.114-0.227-0.227-0.341-0.34c-0.11-0.112-0.226-0.226-0.34-0.339c-0.111-0.114-0.226-0.23-0.34-0.339
			c-0.111-0.116-0.229-0.23-0.34-0.343c-0.114-0.113-0.227-0.228-0.344-0.34c-0.111-0.113-0.226-0.229-0.34-0.341
			c-0.111-0.113-0.223-0.223-0.337-0.336c-0.111-0.114-0.226-0.23-0.344-0.343c-0.116-0.119-0.231-0.238-0.352-0.354
			c-0.108-0.109-0.217-0.216-0.324-0.324c-0.114-0.118-0.231-0.232-0.346-0.348c-0.115-0.111-0.227-0.225-0.341-0.34
			c-0.114-0.114-0.229-0.228-0.34-0.34c-0.114-0.113-0.229-0.228-0.343-0.343c-0.112-0.113-0.227-0.226-0.341-0.337
			c-0.114-0.116-0.225-0.23-0.34-0.342c-0.114-0.114-0.229-0.227-0.34-0.341c-0.113-0.114-0.226-0.226-0.34-0.338
			c-0.114-0.116-0.229-0.23-0.346-0.345c-0.111-0.116-0.227-0.226-0.337-0.341c-0.114-0.113-0.227-0.226-0.343-0.339
			c-0.108-0.113-0.221-0.223-0.335-0.335c-0.117-0.118-0.231-0.235-0.35-0.35c-0.11-0.114-0.229-0.227-0.339-0.34
			c-0.112-0.111-0.223-0.224-0.337-0.337c-0.114-0.114-0.227-0.23-0.344-0.341c-0.111-0.116-0.226-0.229-0.34-0.341
			c-0.113-0.115-0.226-0.227-0.34-0.34c-0.114-0.114-0.229-0.228-0.343-0.343c-0.111-0.11-0.226-0.226-0.34-0.34
			c-0.112-0.113-0.227-0.226-0.337-0.335c-0.114-0.118-0.232-0.233-0.347-0.349c-0.114-0.111-0.226-0.224-0.34-0.337
			c-8.793-8.88-20.983-14.394-34.439-14.394v117.035c0.107,0.109,0.214,0.21,0.321,0.319c0.11,0.114,0.224,0.227,0.337,0.336
			c0.113,0.114,0.224,0.224,0.339,0.338c0.114,0.117,0.228,0.23,0.344,0.345c0.111,0.112,0.223,0.225,0.333,0.334
			c0.115,0.114,0.231,0.232,0.35,0.35c0.11,0.109,0.224,0.224,0.337,0.333c0.113,0.117,0.228,0.233,0.344,0.35
			c0.112,0.112,0.226,0.224,0.339,0.336c0.11,0.114,0.225,0.229,0.338,0.338c0.115,0.119,0.23,0.233,0.346,0.35
			c0.012,0.007,0.021,0.019,0.033,0.032l60.268-26.273L195.087,108.732z"/>
	</g>
	<path fill="#E7E7E7" d="M49.462,60.184l9.553,97.063l67.516,29.43l67.518-29.43l9.551-97.063l-77.068-29.428L49.462,60.184z
		 M190.559,154.708l-64.027,27.906l-64.026-27.906l-9.06-92.059l73.086-27.907l73.088,27.907L190.559,154.708z"/>
	<path fill="#FFFFFF" d="M126.531,155.348V62.086c-25.754,0-46.632,20.875-46.632,46.63
		C79.899,134.47,100.777,155.348,126.531,155.348z M114.841,86.672l9.539-6.514v57.117l-9.539-6.518V86.672z M99.835,94.119
		l9.539-4.654v38.503l-9.539-4.653V94.119z M94.483,96.909v24.545l-9.538-4.653v-15.238L94.483,96.909z"/>
	<path fill="#FFFFFF" d="M124.949,62.086v93.261c25.754,0,46.633-20.878,46.633-46.631
		C171.582,82.962,150.703,62.086,124.949,62.086z M136.639,130.761l-9.537,6.515V80.159l9.537,6.516V130.761z M151.646,123.314
		l-9.538,4.653V89.465l9.538,4.654V123.314z M156.996,120.523V95.979l9.537,4.653v15.238L156.996,120.523z"/>
</g>
<g>
	<path fill="#FFFFFF" d="M14.65,205.42c1.134,0,2.104,0.404,2.908,1.208c0.803,0.804,1.206,1.774,1.206,2.907
		c0,1.145-0.402,2.118-1.206,2.922c-0.804,0.804-1.774,1.206-2.908,1.206c-1.135,0-2.105-0.402-2.909-1.206
		s-1.207-1.777-1.207-2.922c0-1.133,0.403-2.104,1.207-2.907S13.515,205.42,14.65,205.42z"/>
	<path fill="#FFFFFF" d="M43.013,215.863l1.675-1.008c1.179,2.172,2.542,3.257,4.088,3.257c0.661,0,1.282-0.152,1.864-0.463
		c0.581-0.307,1.022-0.72,1.326-1.238c0.305-0.517,0.456-1.066,0.456-1.649c0-0.66-0.222-1.307-0.669-1.943
		c-0.616-0.875-1.743-1.929-3.378-3.162c-1.644-1.242-2.667-2.143-3.069-2.695c-0.697-0.927-1.046-1.935-1.046-3.017
		c0-0.854,0.206-1.639,0.616-2.342c0.411-0.708,0.991-1.266,1.737-1.67c0.746-0.408,1.557-0.612,2.433-0.612
		c0.929,0,1.797,0.233,2.607,0.692c0.808,0.462,1.663,1.309,2.565,2.538l-1.607,1.222c-0.742-0.984-1.374-1.629-1.898-1.943
		c-0.522-0.313-1.091-0.469-1.707-0.469c-0.796,0-1.447,0.242-1.951,0.725c-0.505,0.481-0.757,1.075-0.757,1.779
		c0,0.429,0.088,0.847,0.267,1.249s0.505,0.841,0.979,1.313c0.259,0.251,1.107,0.904,2.546,1.969
		c1.707,1.261,2.878,2.383,3.512,3.367c0.635,0.982,0.952,1.967,0.952,2.96c0,1.431-0.542,2.671-1.628,3.724
		c-1.085,1.058-2.405,1.583-3.959,1.583c-1.198,0-2.285-0.317-3.258-0.957S43.835,217.361,43.013,215.863z"/>
	<path fill="#FFFFFF" d="M64.479,199.818h1.969v19.718h-1.969V199.818z"/>
	<path fill="#FFFFFF" d="M77.113,199.818h3.927c2.188,0,3.672,0.089,4.45,0.27c1.169,0.268,2.121,0.843,2.854,1.725
		c0.732,0.88,1.1,1.965,1.1,3.255c0,1.071-0.253,2.015-0.757,2.83c-0.505,0.813-1.228,1.428-2.165,1.846
		c-0.938,0.414-2.235,0.629-3.887,0.638l7.091,9.155h-2.439l-7.09-9.155h-1.115v9.155h-1.968V199.818z M79.081,201.746v6.704
		l3.397,0.025c1.317,0,2.289-0.123,2.921-0.374c0.63-0.249,1.122-0.649,1.476-1.199c0.354-0.549,0.53-1.165,0.53-1.844
		c0-0.66-0.179-1.264-0.537-1.803c-0.358-0.541-0.828-0.927-1.409-1.16c-0.583-0.23-1.548-0.35-2.9-0.35H79.081z"/>
	<path fill="#FFFFFF" d="M113.061,199.818h1.971v19.718h-1.971V199.818z"/>
	<path fill="#FFFFFF" d="M125.587,219.536v-19.718h4.088c2.947,0,5.089,0.238,6.421,0.711c1.912,0.671,3.405,1.829,4.482,3.483
		c1.076,1.653,1.615,3.622,1.615,5.913c0,1.972-0.426,3.712-1.279,5.211c-0.854,1.503-1.962,2.613-3.324,3.325
		c-1.363,0.715-3.273,1.074-5.73,1.074H125.587z M127.476,217.672h2.279c2.726,0,4.616-0.171,5.67-0.512
		c1.483-0.481,2.648-1.348,3.499-2.602c0.848-1.254,1.273-2.787,1.273-4.603c0-1.9-0.461-3.527-1.383-4.875
		c-0.919-1.348-2.201-2.271-3.847-2.771c-1.231-0.374-3.265-0.564-6.098-0.564h-1.395V217.672z"/>
	<path fill="#FFFFFF" d="M152.065,199.818h11.301v1.928h-9.332v6.179h9.251v1.933h-9.251v7.746h9.251v1.933h-11.22V199.818z"/>
	<path fill="#FFFFFF" d="M180.867,199.818l9.191,19.718h-2.127l-3.1-6.489h-8.493l-3.072,6.489h-2.197l9.314-19.718H180.867z
		 M180.615,204.006l-3.378,7.138h6.742L180.615,204.006z"/>
	<path fill="#FFFFFF" d="M197.118,215.863l1.672-1.008c1.181,2.172,2.545,3.257,4.09,3.257c0.661,0,1.282-0.152,1.864-0.463
		c0.58-0.307,1.021-0.72,1.325-1.238c0.303-0.517,0.457-1.066,0.457-1.649c0-0.66-0.225-1.307-0.67-1.943
		c-0.618-0.875-1.743-1.929-3.379-3.162c-1.645-1.242-2.668-2.143-3.068-2.695c-0.699-0.927-1.045-1.935-1.045-3.017
		c0-0.854,0.203-1.639,0.614-2.342c0.411-0.708,0.989-1.266,1.737-1.67c0.745-0.408,1.556-0.612,2.433-0.612
		c0.927,0,1.796,0.233,2.606,0.692c0.81,0.462,1.665,1.309,2.567,2.538l-1.609,1.222c-0.742-0.984-1.373-1.629-1.895-1.943
		c-0.525-0.313-1.095-0.469-1.71-0.469c-0.798,0-1.447,0.242-1.951,0.725c-0.507,0.481-0.757,1.075-0.757,1.779
		c0,0.429,0.09,0.847,0.266,1.249c0.18,0.402,0.508,0.841,0.98,1.313c0.259,0.251,1.106,0.904,2.547,1.969
		c1.706,1.261,2.877,2.383,3.511,3.367c0.634,0.982,0.952,1.967,0.952,2.96c0,1.431-0.545,2.671-1.628,3.724
		c-1.085,1.058-2.405,1.583-3.96,1.583c-1.199,0-2.284-0.317-3.259-0.957C198.837,218.433,197.937,217.361,197.118,215.863z"/>
	<path fill="#FFFFFF" d="M238.412,205.42c1.134,0,2.104,0.404,2.908,1.208c0.807,0.804,1.209,1.774,1.209,2.907
		c0,1.145-0.402,2.118-1.209,2.922c-0.804,0.804-1.774,1.206-2.908,1.206c-1.135,0-2.102-0.402-2.908-1.206
		c-0.804-0.804-1.206-1.777-1.206-2.922c0-1.133,0.402-2.104,1.206-2.907C236.311,205.824,237.277,205.42,238.412,205.42z"/>
</g>
</svg>
